<?xml version="1.0" standalone="no"?>
<!DOCTYPE svg PUBLIC "-//W3C//DTD SVG 20010904//EN"
 "http://www.w3.org/TR/2001/REC-SVG-20010904/DTD/svg10.dtd">
<svg version="1.0" xmlns="http://www.w3.org/2000/svg"
 width="290.000000pt" height="290.000000pt" viewBox="0 0 290.000000 290.000000"
 preserveAspectRatio="xMidYMid meet">
<metadata>
Created by potrace 1.16, written by Peter Selinger 2001-2019
</metadata>
<g transform="translate(0.000000,290.000000) scale(0.100000,-0.100000)"
fill="#000000" stroke="none">
<path d="M1120 2106 c0 -3 22 -12 50 -21 69 -23 185 -101 247 -167 129 -138
193 -298 193 -486 0 -286 -145 -518 -400 -642 l-84 -40 560 0 c422 0 563 3
572 12 15 15 17 245 2 268 -8 13 -50 16 -255 18 l-245 3 0 120 0 119 213 0
c152 0 216 3 225 12 17 17 17 249 0 266 -9 9 -73 12 -225 12 l-214 0 3 113 3
112 234 3 c152 1 239 6 248 13 10 9 13 45 13 140 0 117 -2 129 -19 139 -19 10
-1121 16 -1121 6z"/>
<path d="M785 1817 c-157 -52 -252 -165 -275 -325 -26 -184 61 -357 218 -430
51 -24 68 -27 172 -27 104 0 121 3 172 27 239 112 301 437 123 646 -23 26 -63
55 -112 79 -68 34 -84 37 -167 40 -56 2 -106 -2 -131 -10z"/>
</g>
</svg>
